PathFileType	4	(X/Y/Z)	C:\Users\u0088756\Documents\documenten\software\SoftwareProjects\DC_TrackingSimulation\Data\Patient2\InputData\MarkerFile_DataSel.trc
DataRate	CameraRate	NumFrames	NumMarkers	Units	OrigDataRate	OrigDataStartFrame	OrigNumFrames
200.000000	200.000000	11	45	m	200.000000	193	257
Frame#	Times		CLAV		LSHO		LUA1		LELB		LLA1		LWRA		LWRB		LFIN		RSHO		RUA1		RELB		RLA1		RWRA		RWRB		RFIN		LASI		RASI		RPSI		LPSI		LTHI3		LKNE		LKNEmed		LTIB		LTIB2		LTIB3		LANK		LANKmed		LHEE		LTOE		LLatFoot		RTHI		RTHI2		RTHI3		RKNE		RTIB		RTIB2		RTIB3		RANK		RANKmed		RHEE		RTOE		RLatFoot		Unlabeled51		Unlabeled52		*52
			X1	Y1	Z1	X2	Y2	Z2	X3	Y3	Z3	X4	Y4	Z4	X5	Y5	Z5	X6	Y6	Z6	X7	Y7	Z7	X8	Y8	Z8	X9	Y9	Z9	X10	Y10	Z10	X11	Y11	Z11	X12	Y12	Z12	X13	Y13	Z13	X14	Y14	Z14	X15	Y15	Z15	X16	Y16	Z16	X17	Y17	Z17	X18	Y18	Z18	X19	Y19	Z19	X20	Y20	Z20	X21	Y21	Z21	X22	Y22	Z22	X23	Y23	Z23	X24	Y24	Z24	X25	Y25	Z25	X26	Y26	Z26	X27	Y27	Z27	X28	Y28	Z28	X29	Y29	Z29	X30	Y30	Z30	X31	Y31	Z31	X32	Y32	Z32	X33	Y33	Z33	X34	Y34	Z34	X35	Y35	Z35	X36	Y36	Z36	X37	Y37	Z37	X38	Y38	Z38	X39	Y39	Z39	X40	Y40	Z40	X41	Y41	Z41	X42	Y42	Z42	X43	Y43	Z43	X44	Y44	Z44	X45	Y45	Z45

193	0.96	1.3073	1.4492	-0.024736	1.1846	1.4606	-0.22805	1.2014	1.2094	-0.26347	1.1611	1.1143	-0.25927	1.1977	0.98754	-0.30968	1.2218	0.84514	-0.28216	1.1531	0.85805	-0.32388	1.1852	0.7857	-0.33822	1.2481	1.488	0.19783	1.3122	1.2519	0.26343	1.3231	1.1419	0.27748	1.4204	1.0436	0.27627	1.4881	0.93457	0.20634	1.451	0.90676	0.27301	1.5146	0.89259	0.25549	1.3284	0.96624	-0.11167	1.3423	0.97914	0.12961	1.0976	1.0033	0.053909	1.089	1.0054	-0.014347	1.3174	0.66265	-0.21301	1.3425	0.4663	-0.18701	1.3661	0.45851	-0.069349	1.2004	0.33746	-0.18396	1.158	0.37834	-0.18388	1.1475	0.32173	-0.17658	1.0125	0.23212	-0.12457	1.0648	0.2066	-0.042741	0.95329	0.26911	-0.048145	1.0569	0.057796	-0.090434	0.96941	0.12477	-0.13654	1.351	0.72269	0.19011	1.2953	0.69803	0.19677	1.3357	0.67284	0.18765	1.3458	0.47445	0.13178	1.3367	0.26732	0.14272	1.2837	0.26769	0.15346	1.3077	0.21977	0.14244	1.2922	0.063986	0.10639	1.3123	0.076376	0.010925	1.2214	0.016748	0.05038	1.455	0.034624	0.056253	1.3784	-0.0042987	0.13325	0.07765	-0.024856	-0.6787	-0.0076002	-0.030539	0.67259	1.1632	1.6093	0.044311
194	0.965	1.3121	1.4498	-0.024655	1.1892	1.4613	-0.22775	1.2046	1.2102	-0.26343	1.1641	1.1152	-0.25892	1.2001	0.98834	-0.30963	1.2245	0.84654	-0.28256	1.155	0.85913	-0.3238	1.1863	0.78635	-0.33764	1.2534	1.4886	0.19797	1.3184	1.2528	0.26343	1.33	1.1428	0.27752	1.4282	1.0454	0.27578	1.4968	0.9372	0.20542	1.4599	0.90884	0.27221	1.5238	0.89543	0.25445	1.3329	0.96724	-0.1113	1.3467	0.97944	0.13005	1.1021	1.004	0.054168	1.0935	1.0062	-0.014144	1.3248	0.66455	-0.21297	1.3525	0.46877	-0.18686	1.3759	0.46093	-0.068992	1.2113	0.33909	-0.18371	1.1688	0.3797	-0.18285	1.1586	0.32295	-0.17612	1.0247	0.23138	-0.12427	1.0766	0.20722	-0.041941	0.96385	0.26765	-0.048734	1.0723	0.058216	-0.088855	0.98369	0.12313	-0.1361	1.3538	0.7224	0.19028	1.2974	0.69803	0.19621	1.3383	0.67263	0.18787	1.3472	0.47424	0.132	1.3374	0.26714	0.14281	1.2845	0.26764	0.15355	1.3083	0.21972	0.1427	1.2922	0.063946	0.10643	1.3122	0.076296	0.010984	1.2213	0.016675	0.050455	1.4548	0.034452	0.056385	1.3782	-0.0044047	0.1334	0.082477	-0.02488	-0.67868	-0.0028535	-0.030566	0.67245	1.1682	1.6098	0.04451
195	0.97	1.317	1.4503	-0.024571	1.1937	1.4621	-0.2275	1.2078	1.2111	-0.26335	1.1671	1.1162	-0.2587	1.2025	0.98924	-0.30961	1.2258	0.84705	-0.28184	1.157	0.86019	-0.32381	1.1878	0.7871	-0.33726	1.2586	1.4892	0.19811	1.3245	1.2537	0.26341	1.3369	1.1438	0.27753	1.4359	1.0471	0.27528	1.5054	0.93985	0.20452	1.4689	0.91086	0.27124	1.5328	0.89825	0.25343	1.3374	0.96814	-0.11092	1.351	0.97974	0.13048	1.1065	1.0046	0.054378	1.098	1.0069	-0.013942	1.332	0.66648	-0.21291	1.3635	0.47112	-0.18672	1.3857	0.46348	-0.06875	1.2222	0.34053	-0.1834	1.1794	0.38085	-0.18196	1.1696	0.32396	-0.17564	1.0369	0.23036	-0.12392	1.0886	0.20756	-0.041215	0.97458	0.26574	-0.049139	1.0881	0.058746	-0.087657	0.99823	0.12125	-0.13564	1.3564	0.72215	0.19065	1.3004	0.698	0.19692	1.3409	0.67242	0.1881	1.3485	0.47404	0.13221	1.3382	0.26694	0.14293	1.2852	0.26767	0.15374	1.3093	0.21946	0.14221	1.2921	0.063916	0.10646	1.3122	0.076246	0.011023	1.2212	0.016704	0.050486	1.4548	0.034276	0.056489	1.378	-0.0045097	0.13356	0.087343	-0.024927	-0.67872	0.0021233	-0.030539	0.67259	1.1732	1.6104	0.044807
196	0.975	1.3218	1.4509	-0.024488	1.1983	1.4628	-0.22721	1.211	1.2119	-0.2633	1.1701	1.1171	-0.25838	1.205	0.99014	-0.30959	1.2248	0.84587	-0.28119	1.159	0.86131	-0.32393	1.1895	0.78791	-0.33699	1.2639	1.4899	0.19824	1.3306	1.2546	0.26336	1.3437	1.1447	0.27749	1.4435	1.0489	0.27475	1.5139	0.94249	0.20361	1.4776	0.91285	0.2702	1.5418	0.90111	0.25236	1.3418	0.96904	-0.11055	1.3554	0.97994	0.13092	1.1109	1.0053	0.05455	1.1025	1.0076	-0.013736	1.3392	0.66841	-0.21282	1.374	0.4735	-0.18664	1.3956	0.46609	-0.068631	1.2331	0.34181	-0.18305	1.1899	0.3818	-0.18121	1.1806	0.32477	-0.17531	1.0492	0.22905	-0.12353	1.1008	0.2076	-0.04056	0.98541	0.26346	-0.049486	1.1031	0.058656	-0.085831	1.0128	0.11913	-0.13512	1.3591	0.72184	0.19095	1.303	0.69801	0.1971	1.3433	0.6722	0.1883	1.3498	0.47383	0.13241	1.339	0.26682	0.14308	1.2859	0.26769	0.1539	1.3098	0.21939	0.14228	1.2921	0.063906	0.10654	1.3121	0.076206	0.011095	1.2214	0.016882	0.050348	1.4547	0.034058	0.0566	1.3779	-0.0046187	0.13366	0.09221	-0.024882	-0.6787	0.0069501	-0.03053	0.67262	1.1782	1.611	0.045135
197	0.98	1.3266	1.4514	-0.024429	1.2028	1.4636	-0.22694	1.2141	1.2127	-0.26326	1.1732	1.1181	-0.25819	1.2074	0.99094	-0.30957	1.2269	0.8467	-0.28126	1.1612	0.86232	-0.32387	1.1914	0.7887	-0.33669	1.2692	1.4905	0.19834	1.3366	1.2555	0.2633	1.3504	1.1456	0.27745	1.451	1.0506	0.27423	1.5223	0.94514	0.20271	1.4864	0.91486	0.26915	1.5506	0.90392	0.25133	1.3462	0.96984	-0.11016	1.3597	0.98024	0.1314	1.1153	1.006	0.054752	1.107	1.0084	-0.013572	1.3463	0.67029	-0.21268	1.3842	0.47598	-0.18666	1.4056	0.4687	-0.068319	1.2442	0.34289	-0.18269	1.2006	0.38246	-0.18049	1.1917	0.32534	-0.17489	1.0616	0.22754	-0.12317	1.1131	0.20738	-0.039894	0.9964	0.26081	-0.049659	1.1184	0.058446	-0.084233	1.0275	0.11684	-0.13465	1.3619	0.72157	0.19125	1.3058	0.69808	0.19727	1.3457	0.67203	0.18849	1.3511	0.47365	0.13264	1.3396	0.26666	0.14333	1.2865	0.26772	0.15403	1.3103	0.21937	0.1423	1.292	0.063926	0.1066	1.3121	0.076186	0.01113	1.2209	0.016478	0.050414	1.4545	0.033835	0.056744	1.3776	-0.0047117	0.13379	0.097057	-0.024911	-0.67874	0.011807	-0.030546	0.67255	1.1832	1.6115	0.045473
198	0.985	1.3315	1.4519	-0.024373	1.2074	1.4643	-0.22668	1.2173	1.2135	-0.2632	1.1762	1.119	-0.25793	1.21	0.99184	-0.30961	1.2294	0.84759	-0.28138	1.1635	0.86329	-0.32381	1.1934	0.78948	-0.3365	1.2745	1.4911	0.19848	1.3425	1.2563	0.26323	1.3571	1.1465	0.27732	1.4585	1.0523	0.27367	1.5307	0.94774	0.20177	1.495	0.91688	0.2681	1.5593	0.90676	0.25027	1.3507	0.97074	-0.10977	1.364	0.98044	0.132	1.1197	1.0066	0.054913	1.1114	1.0091	-0.013356	1.3534	0.67217	-0.21261	1.3938	0.47834	-0.1864	1.4155	0.47142	-0.068095	1.2551	0.34378	-0.1823	1.2112	0.38285	-0.1799	1.2031	0.32562	-0.17425	1.074	0.22573	-0.12275	1.1256	0.20687	-0.039281	1.0077	0.25784	-0.049753	1.1344	0.058276	-0.083078	1.0424	0.11435	-0.13414	1.3645	0.72131	0.19153	1.3074	0.69826	0.19906	1.3481	0.67187	0.18869	1.3524	0.47343	0.13288	1.3401	0.26655	0.14353	1.2872	0.26778	0.15414	1.3107	0.21935	0.14236	1.2919	0.063896	0.10664	1.312	0.076156	0.011206	1.2207	0.016426	0.050536	1.4542	0.033605	0.056869	1.3773	-0.0048367	0.13388	0.10185	-0.024944	-0.67873	0.017234	-0.030794	0.67219	1.1881	1.612	0.04572
199	0.99	1.3363	1.4524	-0.024325	1.2119	1.465	-0.22642	1.2205	1.2143	-0.26316	1.1792	1.1199	-0.25775	1.2125	0.99264	-0.30963	1.2316	0.84842	-0.28156	1.1659	0.86424	-0.32368	1.1956	0.79028	-0.33633	1.2797	1.4918	0.19857	1.3483	1.2572	0.26312	1.3637	1.1474	0.27725	1.4658	1.054	0.27312	1.539	0.95044	0.20085	1.5036	0.91889	0.26701	1.568	0.90954	0.24921	1.3551	0.97154	-0.10938	1.3685	0.98074	0.13268	1.1241	1.0072	0.055093	1.1158	1.0098	-0.013204	1.3603	0.67406	-0.21245	1.4031	0.48069	-0.18605	1.4252	0.47416	-0.067889	1.2661	0.34449	-0.18189	1.2218	0.38305	-0.17942	1.2144	0.32575	-0.17383	1.0865	0.22375	-0.12231	1.1383	0.20607	-0.038772	1.019	0.25446	-0.049623	1.1503	0.057886	-0.082166	1.0572	0.11171	-0.13368	1.3672	0.72103	0.19177	1.3103	0.69888	0.19971	1.3505	0.6717	0.18888	1.3536	0.47324	0.13312	1.3406	0.26645	0.14362	1.2877	0.26786	0.15422	1.3111	0.21935	0.14249	1.2917	0.063886	0.10666	1.3119	0.076106	0.011294	1.2207	0.01643	0.050542	1.454	0.033361	0.057057	1.3771	-0.0049197	0.13399	0.10675	-0.024996	-0.67871	0.02153	-0.030637	0.67256	1.193	1.6125	0.045955
200	0.995	1.3412	1.4529	-0.024235	1.2165	1.4657	-0.22617	1.2237	1.2151	-0.26314	1.1822	1.1209	-0.25753	1.2151	0.99354	-0.30968	1.2342	0.84929	-0.28177	1.1683	0.86509	-0.32354	1.1979	0.79108	-0.33621	1.2849	1.4923	0.19866	1.3541	1.2579	0.263	1.3701	1.1482	0.277	1.4731	1.0557	0.27256	1.5474	0.95314	0.19981	1.512	0.92087	0.26591	1.5765	0.91235	0.24812	1.3595	0.97224	-0.10899	1.373	0.98104	0.13342	1.1285	1.0079	0.055193	1.1203	1.0106	-0.013106	1.3672	0.67594	-0.21228	1.4123	0.48304	-0.18566	1.4348	0.47687	-0.067667	1.2772	0.345	-0.18147	1.2324	0.3829	-0.17895	1.2257	0.32563	-0.17341	1.099	0.22158	-0.12185	1.151	0.20501	-0.038143	1.0305	0.2508	-0.049417	1.1656	0.057096	-0.08131	1.0723	0.10889	-0.13326	1.3698	0.72077	0.19202	1.3123	0.69825	0.19937	1.3528	0.67152	0.18909	1.3547	0.4731	0.13337	1.341	0.26637	0.1438	1.288	0.26792	0.15426	1.3113	0.21935	0.14257	1.2917	0.063866	0.10676	1.3118	0.076066	0.011373	1.2204	0.016653	0.050836	1.4538	0.033154	0.057175	1.3768	-0.0050667	0.13418	0.11155	-0.024988	-0.67873	0.026397	-0.030676	0.6725	1.1979	1.6129	0.046137
201	1	1.346	1.4534	-0.024184	1.2211	1.4664	-0.22592	1.2268	1.2159	-0.26312	1.1853	1.1217	-0.25736	1.2178	0.99434	-0.30975	1.2372	0.85029	-0.28198	1.1708	0.86593	-0.32338	1.2002	0.79186	-0.33618	1.2902	1.4929	0.19876	1.3599	1.2587	0.26286	1.3766	1.1491	0.27689	1.4803	1.0573	0.272	1.5554	0.95564	0.19894	1.5204	0.92286	0.26477	1.585	0.91509	0.24706	1.3639	0.97294	-0.1086	1.3774	0.98124	0.13409	1.133	1.0085	0.055315	1.1247	1.0113	-0.01303	1.374	0.67781	-0.21213	1.4213	0.48533	-0.18526	1.4442	0.47959	-0.067425	1.2882	0.34533	-0.18101	1.243	0.38283	-0.17871	1.2367	0.32535	-0.17316	1.1117	0.21918	-0.12136	1.164	0.20371	-0.037712	1.0423	0.24677	-0.048985	1.1844	0.057406	-0.081412	1.0875	0.1059	-0.13287	1.3724	0.7205	0.1923	1.3149	0.69845	0.1996	1.3552	0.67135	0.18929	1.3558	0.47293	0.13362	1.3413	0.26623	0.1441	1.2883	0.26803	0.15429	1.3115	0.21938	0.14264	1.2917	0.063886	0.10676	1.3117	0.076026	0.011441	1.2201	0.01665	0.050925	1.4536	0.032911	0.057305	1.3766	-0.0052047	0.13428	0.11637	-0.024998	-0.67873	0.031094	-0.030786	0.67244	1.2028	1.6134	0.046276
202	1.005	1.3508	1.4538	-0.024153	1.2257	1.4671	-0.22568	1.23	1.2166	-0.26309	1.1884	1.1226	-0.25717	1.2206	0.99524	-0.30984	1.2403	0.85125	-0.28225	1.1734	0.86689	-0.32367	1.2028	0.79262	-0.33616	1.2955	1.4935	0.19884	1.3655	1.2594	0.26271	1.383	1.1499	0.27667	1.4875	1.0589	0.27142	1.5633	0.95824	0.19812	1.5286	0.92477	0.26362	1.5934	0.91786	0.24597	1.3683	0.97364	-0.10821	1.3818	0.98134	0.13448	1.1375	1.0091	0.055395	1.1291	1.0119	-0.012954	1.3807	0.67964	-0.21198	1.4301	0.48756	-0.18487	1.4534	0.48231	-0.06717	1.2993	0.34548	-0.18054	1.2535	0.38229	-0.17845	1.2483	0.32474	-0.17259	1.1244	0.21659	-0.12085	1.1771	0.20217	-0.037238	1.0542	0.2425	-0.048541	1.2012	0.056906	-0.081214	1.1028	0.1028	-0.1325	1.3751	0.72019	0.19255	1.3178	0.69909	0.20012	1.3575	0.67116	0.18947	1.3569	0.47273	0.13389	1.3417	0.26611	0.14431	1.2885	0.26816	0.15428	1.3115	0.21941	0.14281	1.2915	0.063856	0.10679	1.3116	0.076006	0.011525	1.2199	0.016633	0.051011	1.4534	0.032678	0.057433	1.3763	-0.0052837	0.13444	0.12122	-0.025037	-0.67869	0.035381	-0.030389	0.67366	1.2077	1.6139	0.046432
203	1.01	1.3556	1.4541	-0.024133	1.2303	1.4677	-0.22545	1.2334	1.2174	-0.26305	1.1915	1.1234	-0.25701	1.2233	0.99594	-0.30989	1.2437	0.85226	-0.28252	1.176	0.86755	-0.32338	1.2055	0.79341	-0.33621	1.3006	1.494	0.19892	1.3712	1.2602	0.26257	1.3893	1.1506	0.27638	1.4945	1.0605	0.27082	1.5712	0.96084	0.19717	1.5368	0.92673	0.26246	1.6017	0.92055	0.24487	1.3727	0.97424	-0.10782	1.3858	0.98124	0.1343	1.1419	1.0097	0.055443	1.1335	1.0126	-0.012864	1.3874	0.68143	-0.21183	1.4387	0.48979	-0.18493	1.4624	0.48499	-0.066904	1.3105	0.34547	-0.18025	1.264	0.38156	-0.17826	1.2594	0.32408	-0.17237	1.1372	0.2138	-0.12034	1.1903	0.20037	-0.036747	1.0663	0.23788	-0.047926	1.2178	0.056106	-0.080963	1.1183	0.099526	-0.13218	1.3778	0.71988	0.19284	1.3203	0.69914	0.20029	1.3598	0.67102	0.18962	1.3578	0.47253	0.13418	1.3418	0.26607	0.1445	1.2886	0.26821	0.15429	1.3115	0.21944	0.14285	1.2906	0.063816	0.10696	1.3115	0.075946	0.011618	1.2196	0.016633	0.051124	1.4531	0.032495	0.057596	1.376	-0.0053997	0.13457	0.12598	-0.025291	-0.67842	0.040697	-0.030666	0.67274	1.2125	1.6143	0.046559
